<svg width="21" height="18" viewBox="0 0 21 18" fill="none" xmlns="http://www.w3.org/2000/svg">
<g id="Frame 2087327513">
<path id="Vector" d="M20.8019 3.87196C17.0312 2.23458 13.4428 2.51158 9.86697 4.21051C7.51847 5.28202 4.8541 5.48747 2.36335 4.78914C-0.0561633 4.17358 -0.200702 3.97046 0.22664 1.35434C0.716827 1.52054 1.18187 1.69904 1.6532 1.84061C4.50706 2.77283 7.62114 2.56491 10.3195 1.26199C12.9074 -0.0179178 15.8808 -0.337144 18.6903 0.36328C21.0659 0.941904 21.2041 1.19429 20.8019 3.87196Z" fill="#536D46"/>
<path id="Vector_2" d="M0.22046 11.3818C-0.188029 8.85797 -0.0623466 8.64868 2.25661 8.05159C4.64247 7.33191 7.21345 7.48057 9.4963 8.47018C13.2167 10.2184 16.9057 10.6862 20.7454 8.98725C21.2985 11.4495 21.0534 11.8742 18.7407 12.4528C16.3394 13.0845 13.7944 12.942 11.4822 12.0466C6.11527 9.99676 5.63136 9.96597 0.22046 11.3818Z" fill="#536D46"/>
<path id="Vector_3" d="M20.7514 14.0717C21.2793 16.6201 21.1033 16.9279 18.8661 17.525C16.4347 18.2752 13.8077 18.133 11.4756 17.1249C7.80545 15.4198 4.1479 14.9212 0.358383 16.5771C-0.351759 14.3057 -0.100382 13.7886 1.9672 13.2284C4.48098 12.5575 7.02617 12.459 9.37027 13.5362C13.1284 15.2659 16.8613 15.8692 20.7514 14.0717Z" fill="#536D46"/>
<path id="Vector_4" d="M18.3405 6.35879C18.3475 6.69669 18.2865 7.03264 18.161 7.34745C18.0354 7.66225 17.8478 7.94975 17.6089 8.19354C17.3699 8.43732 17.0842 8.63262 16.7682 8.76827C16.4522 8.90393 16.112 8.97728 15.767 8.98416C15.422 8.99103 15.0791 8.93128 14.7577 8.80832C14.4363 8.68537 14.1428 8.5016 13.8939 8.26753C13.645 8.03346 13.4456 7.75366 13.3071 7.44412C13.1686 7.13457 13.0937 6.80134 13.0867 6.46345C13.0784 6.12481 13.1385 5.78791 13.2637 5.47216C13.3889 5.15641 13.5767 4.86806 13.8163 4.62372C14.0558 4.37939 14.3423 4.1839 14.6593 4.04854C14.9763 3.91317 15.3175 3.84061 15.6633 3.83502C16.0096 3.82349 16.3547 3.88015 16.6783 4.00165C17.0018 4.12315 17.2971 4.30702 17.5468 4.54237C17.7964 4.77771 17.9953 5.05974 18.1317 5.37176C18.268 5.68377 18.339 6.01941 18.3405 6.35879Z" fill="#536D46"/>
</g>
</svg>
